<?xml version="1.0" encoding="utf-8"?>
<!-- Generator: Adobe Illustrator 16.0.0, SVG Export Plug-In . SVG Version: 6.00 Build 0)  -->
<!DOCTYPE svg PUBLIC "-//W3C//DTD SVG 1.1//EN" "http://www.w3.org/Graphics/SVG/1.1/DTD/svg11.dtd">
<svg version="1.1" id="Layer_2" xmlns="http://www.w3.org/2000/svg" xmlns:xlink="http://www.w3.org/1999/xlink" x="0px" y="0px"
	 width="163.588px" height="198.982px" viewBox="448.412 288.176 163.588 198.982"
	 enable-background="new 448.412 288.176 163.588 198.982" xml:space="preserve">
<g id="Layer_1-2">
	<g>
		<g>
			<path d="M530.025,392.221c7.708,0,14.017,6.308,14.017,14.016s-6.309,14.017-14.017,14.017s-14.016-6.309-14.016-14.017
				S522.317,392.221,530.025,392.221 M562.258,406.237c0-17.87-14.362-32.232-32.232-32.232s-32.232,14.362-32.232,32.232
				s14.362,32.232,32.232,32.232S562.258,424.107,562.258,406.237"/>
		</g>
		<polygon points="530.025,465.434 448.412,413.584 448.412,434.962 530.025,487.158 612,434.962 612,413.584 		"/>
		<polygon points="530.025,288.176 448.412,340.372 448.412,391.875 466.268,403.438 466.268,350.188 530.025,309.539 
			593.783,350.188 593.783,403.438 612,391.875 612,340.372 		"/>
	</g>
</g>
</svg>
