<?xml version="1.0" encoding="utf-8"?>
<!-- Generator: Adobe Illustrator 26.5.0, SVG Export Plug-In . SVG Version: 6.00 Build 0)  -->
<svg version="1.1" id="Lager_1" xmlns="http://www.w3.org/2000/svg" xmlns:xlink="http://www.w3.org/1999/xlink" x="0px" y="0px"
	 viewBox="0 0 968.2 349.3" style="enable-background:new 0 0 968.2 349.3;" xml:space="preserve">
<style type="text/css">
	.st0{display:none;opacity:0.5;}
	.st1{fill:#7BB610;}
	.st2{fill:#7C7A7A;}
</style>
<g id="Bas" class="st0">
	
		<image style="display:inline;overflow:visible;enable-background:new    ;" width="372" height="121" xlink:href="518A7F08.png"  transform="matrix(2.4846 0 0 2.4846 31.6596 29.9245)">
	</image>
</g>
<g id="Tetiko_Mjuk">
	<g>
		<polygon class="st1" points="955.9,187.7 928.9,203.7 929.1,123.4 832,61.8 736.1,123.7 736.3,203 708.6,185.3 708.8,108.9 
			832,29.9 955.9,108.5 		"/>
		<path class="st2" d="M955.9,251.8l-124,78.8l-122.3-79.2v-29c0,0,119.5,75.9,122.5,76c2.4,0.1,123.8-76.2,123.8-76.2L955.9,251.8
			L955.9,251.8z"/>
		<path id="XMLID_00000115478109150157545800000011170312601497613228_" class="st1" d="M246.3,117.4h9.8c1.5,0,3-0.8,3-2.3V88.9
			c0-1.5,1.2-2.7,2.8-2.7h20c1.5,0,2.7,1.2,2.7,2.7c0,5.6,0,19.2,0,26.3c0,1.5,1.4,2.2,2.9,2.2c7.6,0,21.8-0.1,27.6,0
			c1.5,0,2.7,1,2.7,2.5v17.4c0,1.5-1.2,2.5-2.7,2.5h-26.4c-1.5,0-2.8,1.4-2.8,2.9v69.1c0.3,9.8,6.3,13.1,16.7,13.4H315
			c1.5,0,2.7,1.4,2.7,2.9v16.4c0,1.5-1.2,2.8-2.7,2.7h-28.3c-17.6-2.6-27.5-13.8-27.4-36.2v-68.6c0-1.5-1.5-2.7-3-2.7h-10
			c-1.5,0-2.7-1-2.7-2.5v-17.4C243.6,118.4,244.8,117.4,246.3,117.4z"/>
		<path id="XMLID_00000044889096455006544500000001128971928591863982_" class="st1" d="M33.9,117.4h9.8c1.5,0,3-0.8,3-2.3V88.9
			c0-1.5,1.2-2.7,2.8-2.7h20c1.5,0,2.7,1.2,2.7,2.7c0.1,5.6,0,19.2,0,26.3c0,1.5,1.4,2.2,2.9,2.2c7.6,0,21.8-0.1,27.6,0
			c1.5,0,2.7,1,2.7,2.5v17.4c0,1.5-1.2,2.5-2.7,2.5H76.2c-1.5,0-2.8,1.4-2.8,2.9v69.1c0.3,9.8,6.3,13.1,16.7,13.4h12.4
			c1.5,0,2.7,1.4,2.7,2.9v16.4c0,1.5-1.2,2.8-2.7,2.7H74.2c-17.6-2.6-27.5-13.8-27.4-36.2v-68.6c0-1.5-1.5-2.7-3-2.7h-10
			c-1.5,0-2.7-1-2.7-2.5v-17.4C31.1,118.4,32.4,117.4,33.9,117.4z"/>
		<path class="st1" d="M150.2,188.8c24.6,0,49.1,0,73.9,0c9.5,0,12.9-3,12.5-12.9c-1.1-26.8-16.2-48.5-40.2-56.3
			c-26.8-8.7-55.8,0.3-70.2,22.6c-10.4,16.2-12.6,34.1-9.6,53.4c8.2,52.6,62.4,60.9,92.3,41.7c8.2-5.3,21.3-17,23.5-28.4
			c0.2-1.2-0.6-2.2-1.8-2.2c-5-0.1-12.9,0-19.3,0c-0.6,0-1.1,0.3-1.4,0.7c-4.8,5.9-6.1,7.4-11.7,11.9c-0.1,0-0.1,0.1-0.2,0.1
			c-18.3,12.7-49,7.5-57-16.9C137.9,193.1,139.6,188.8,150.2,188.8z M140.1,164.8c3-15.1,18.5-28.8,36-28.8
			c15.6,0,29.4,8.5,34.6,24.6c3.1,9.6,0.9,10.6-9.8,10.6c-24.8,0-25.5,0.1-25.5,0c-1.1,0-18.6,0.2-27.9,0
			C141.5,171.1,138.7,171.6,140.1,164.8z"/>
		<path class="st1" d="M492.5,241.1c-9.3-9.6-32.8-33.9-44.1-46.1c-12.7-13.7-13.1-10.7,0-25c13.8-15.2,29.8-32.6,44.1-48.1
			c1.4-1.5,0.4-4-1.7-4h-25.3c-2.2,0-4.4,1-5.8,2.7l-42.5,48.9c-1,1.1-3.8,0.5-3.9-1c-0.3-12.5,0-88.3,0-98.4c0-1.5-0.8-2.4-2.4-2.4
			H390c-1.7,0-2.4,1.1-2.4,2.4l0,172.6c0,1.3,1.1,2.4,2.4,2.4h20.8c1.3,0,2.4-1.1,2.4-2.4c0-8.5,0-37.2,0-47.5
			c0-1.4,2.8-2.2,3.9-1.1c8.8,8.5,34.5,39.2,42.5,48.4c1.5,1.7,3.6,2.6,5.8,2.6h25.3C492.9,245.1,494,242.6,492.5,241.1z"/>
		<path class="st1" d="M495.7,181c0.1-38.6,25.9-64.6,64.3-65.1c37.5-0.5,65.9,27.6,65.6,65.7c-0.2,38.2-27.5,65.7-66.6,65.7
			C520,247.2,495.6,221,495.7,181z M519.3,181.5c0.2,17.7,10,45.3,40.8,45.3s40.8-28.9,40.8-47.6c-1.1-25.8-14-42.6-40.8-42.6
			C535.2,136.7,519.3,152.2,519.3,181.5z"/>
		<path class="st2" d="M878.4,209.8c-0.1,26.2-19.9,45.9-46.1,45.9c-25.6-0.1-46.7-20.7-46.7-45.9c-0.1-26.4,20.4-46.3,47.2-46.2
			C859.3,163.8,878.5,183.2,878.4,209.8z M855.1,208.8c-0.2-12.3-11-22.5-23.4-22.1c-12.5,0.4-22.8,11-22.5,23.3
			c0.3,11.8,12.1,23,23.7,22.4C845.4,231.8,855.3,221.3,855.1,208.8z"/>
	</g>
	<circle class="st1" cx="346.5" cy="82.4" r="14.8"/>
	<path class="st1" d="M356.3,115.9h-19.6c-1.3,0-2.4,1.1-2.4,2.4v124.4c0,1.3,1.1,2.4,2.4,2.4h19.6c1.3,0,2.4-1.1,2.4-2.4V118.3
		C358.7,117,357.6,115.9,356.3,115.9z"/>
	<path class="st1" d="M609.4,113.4h-2.7c-0.1,0-0.2-0.1-0.2-0.2v-12.8c0-0.1-0.1-0.2-0.2-0.2h-3.1c-0.1,0-0.2-0.1-0.2-0.2v-2.9
		c0-0.1,0.1-0.2,0.2-0.2h9.7c0.1,0,0.2,0.1,0.2,0.2v2.7c0,0.1-0.1,0.2-0.2,0.2h-3.2c-0.1,0-0.2,0.1-0.2,0.2v13
		C609.5,113.3,609.5,113.4,609.4,113.4z"/>
	<path class="st1" d="M620,113.3V97.2c0-0.1,0.1-0.1,0.1-0.1h2.7c0.1,0,0.1,0,0.1,0.1L628,108c0,0.1,0.2,0.1,0.3,0l4.9-10.9
		c0-0.1,0.1-0.1,0.1-0.1h2.5c0.1,0,0.1,0.1,0.1,0.1v16.1c0,0.1-0.1,0.1-0.1,0.1h-2.5c-0.1,0-0.1-0.1-0.1-0.1v-5.6
		c0-0.2-0.2-0.2-0.3-0.1l-3.2,5.9c0,0.1-0.1,0.1-0.1,0.1h-3.2c0,0-0.1,0-0.1-0.1l-3.4-5.6c-0.1-0.1-0.3-0.1-0.3,0.1v5.3
		c0,0.1-0.1,0.1-0.1,0.1h-2.4C620,113.4,620,113.3,620,113.3z"/>
</g>
</svg>
